<?xml version="1.0" encoding="iso-8859-1"?>
<!-- Generator: Adobe Illustrator 19.0.0, SVG Export Plug-In . SVG Version: 6.00 Build 0)  -->
<svg version="1.1" id="Layer_1" xmlns="http://www.w3.org/2000/svg" xmlns:xlink="http://www.w3.org/1999/xlink" x="0px" y="0px"
	 viewBox="0 0 512 512" style="enable-background:new 0 0 512 512;" xml:space="preserve">
<path style="fill:#0082CA;" d="M503.584,392.773c0,9.258-7.575,16.833-16.833,16.833H25.249c-9.258,0-16.833-7.575-16.833-16.833
	V119.227c0-9.258,7.575-16.833,16.833-16.833h461.502c9.258,0,16.833,7.575,16.833,16.833V392.773z"/>
<rect x="8.416" y="151.842" style="fill:#1E252B;" width="495.163" height="43.978"/>
<circle style="fill:#FFFFFF;" cx="378.501" cy="328.193" r="32.918"/>
<circle style="fill:#FFC843;" cx="423.018" cy="328.193" r="32.918"/>
<g>
	<path style="fill:#0055B8;" d="M235.801,268.344c0,6.172-5.05,11.222-11.222,11.222H52.885c-6.172,0-11.222-5.05-11.222-11.222
		v-11.222c0-6.172,5.05-11.222,11.222-11.222h171.694c6.172,0,11.222,5.05,11.222,11.222V268.344z"/>
	<path style="fill:#0055B8;" d="M177.447,326.697c0,6.172-5.05,11.222-11.222,11.222H52.885c-6.172,0-11.222-5.05-11.222-11.222
		v-11.222c0-6.172,5.05-11.222,11.222-11.222h113.34c6.172,0,11.222,5.05,11.222,11.222V326.697z"/>
</g>
<path style="fill:#1E252B;" d="M486.751,418.022H25.249C11.327,418.022,0,406.696,0,392.773V119.227
	c0-13.923,11.327-25.249,25.249-25.249h461.502c13.922,0,25.249,11.326,25.249,25.249v273.545
	C512,406.696,500.673,418.022,486.751,418.022z M25.249,110.811c-4.641,0-8.416,3.776-8.416,8.416v273.545
	c0,4.64,3.775,8.416,8.416,8.416h461.502c4.641,0,8.416-3.776,8.416-8.416V119.227c0-4.64-3.775-8.416-8.416-8.416H25.249z"/>
<g>
</g>
<g>
</g>
<g>
</g>
<g>
</g>
<g>
</g>
<g>
</g>
<g>
</g>
<g>
</g>
<g>
</g>
<g>
</g>
<g>
</g>
<g>
</g>
<g>
</g>
<g>
</g>
<g>
</g>
</svg>
