<svg xmlns="http://www.w3.org/2000/svg" xmlns:xlink="http://www.w3.org/1999/xlink" viewBox="0 0 64 64"><defs><style>.cls-1{fill:url(#linear-gradient);}.cls-2{fill:url(#linear-gradient-2);}.cls-3{fill:url(#linear-gradient-3);}.cls-4{fill:url(#linear-gradient-4);}.cls-5{fill:#4795ea;}.cls-6{fill:url(#linear-gradient-5);}</style><linearGradient id="linear-gradient" x1="32" y1="60" x2="32" y2="28" gradientUnits="userSpaceOnUse"><stop offset="0" stop-color="#54a5ff"/><stop offset="1" stop-color="#8ad3fe"/></linearGradient><linearGradient id="linear-gradient-2" y1="28" y2="19" xlink:href="#linear-gradient"/><linearGradient id="linear-gradient-3" y1="19" y2="11" xlink:href="#linear-gradient"/><linearGradient id="linear-gradient-4" y1="11" y2="4" xlink:href="#linear-gradient"/><linearGradient id="linear-gradient-5" x1="32" y1="50" x2="32" y2="38" gradientUnits="userSpaceOnUse"><stop offset="0" stop-color="#d3e6f5"/><stop offset="1" stop-color="#f0f7fc"/></linearGradient></defs><title>Funds</title><g id="Funds"><rect class="cls-1" x="4" y="28" width="56" height="32" rx="3"/><path class="cls-2" d="M9,19H55a2,2,0,0,1,2,2v7a0,0,0,0,1,0,0H7a0,0,0,0,1,0,0V21A2,2,0,0,1,9,19Z"/><path class="cls-3" d="M12,11H52a2,2,0,0,1,2,2v6a0,0,0,0,1,0,0H10a0,0,0,0,1,0,0V13a2,2,0,0,1,2-2Z"/><path class="cls-4" d="M15,4H49a2,2,0,0,1,2,2v5a0,0,0,0,1,0,0H13a0,0,0,0,1,0,0V6A2,2,0,0,1,15,4Z"/><path class="cls-5" d="M4,28H9a3,3,0,0,1,3,3v5a0,0,0,0,1,0,0h0a8,8,0,0,1-8-8v0a0,0,0,0,1,0,0Z" transform="translate(-24 40) rotate(-90)"/><path class="cls-5" d="M60,28h0a0,0,0,0,1,0,0v5a3,3,0,0,1-3,3H52a0,0,0,0,1,0,0v0A8,8,0,0,1,60,28Z" transform="translate(24 88) rotate(-90)"/><path class="cls-5" d="M12,52h0a0,0,0,0,1,0,0v5a3,3,0,0,1-3,3H4a0,0,0,0,1,0,0v0A8,8,0,0,1,12,52Z" transform="translate(64 48) rotate(90)"/><path class="cls-5" d="M52,52h5a3,3,0,0,1,3,3v5a0,0,0,0,1,0,0h0a8,8,0,0,1-8-8v0A0,0,0,0,1,52,52Z" transform="translate(112 0) rotate(90)"/><path class="cls-5" d="M41,44a8.14,8.14,0,0,1-.06,1,8.82,8.82,0,0,1-.81,2.86,9,9,0,0,1-16.26,0A8.82,8.82,0,0,1,23.06,45,8.14,8.14,0,0,1,23,44a7,7,0,0,1,.07-1,2.3,2.3,0,0,1,0-.26A8.22,8.22,0,0,1,23.52,41a9,9,0,0,1,17,0,8.22,8.22,0,0,1,.42,1.71A7.84,7.84,0,0,1,41,44Z"/><circle class="cls-5" cx="50" cy="44" r="3"/><circle class="cls-5" cx="14" cy="44" r="3"/><path class="cls-6" d="M32.5,43h-1a.5.5,0,0,1,0-1H34a1,1,0,0,0,0-2H33V39a1,1,0,0,0-2,0v1a2.5,2.5,0,0,0,.5,5h1a.5.5,0,0,1,0,1H30a1,1,0,0,0,0,2h1v1a1,1,0,0,0,2,0V48a2.5,2.5,0,0,0-.5-5Z"/><path class="cls-5" d="M4,28H9a3,3,0,0,1,3,3v5a0,0,0,0,1,0,0h0a8,8,0,0,1-8-8v0a0,0,0,0,1,0,0Z" transform="translate(-24 40) rotate(-90)"/><path class="cls-5" d="M12,52h0a0,0,0,0,1,0,0v5a3,3,0,0,1-3,3H4a0,0,0,0,1,0,0v0A8,8,0,0,1,12,52Z" transform="translate(64 48) rotate(90)"/><path class="cls-5" d="M52,52h5a3,3,0,0,1,3,3v5a0,0,0,0,1,0,0h0a8,8,0,0,1-8-8v0A0,0,0,0,1,52,52Z" transform="translate(112 0) rotate(90)"/></g></svg>