<?xml version="1.0" encoding="utf-8"?>
<!-- Generator: Adobe Illustrator 24.3.0, SVG Export Plug-In . SVG Version: 6.00 Build 0)  -->
<svg version="1.1" id="Layer_1" xmlns="http://www.w3.org/2000/svg" xmlns:xlink="http://www.w3.org/1999/xlink" x="0px" y="0px"
	 viewBox="0 0 80 80" enable-background="new 0 0 80 80" xml:space="preserve">
<path fill="#18CEF6" d="M52.331,12.908c-0.247-3.197-1.483-2.459-2.719-2.09c-1.237,0.369-31.895,17.829-31.895,17.829l-0.124,1.599
	l34.614-0.984C52.207,29.262,52.578,16.105,52.331,12.908z M18.829,58.035v8.115h48.213v-8.115H18.829z"/>
<path fill="#233251" d="M53.753,28.892V12.536C53.752,10.582,52.162,9,50.198,9h-0.289L14,28.846l0.025,0.046h-0.018v37.625h55.258
	V28.892H53.753z M67.041,53.055H16.232V31.105h50.809V53.055z M50.445,11.235c0.616,0.117,1.082,0.655,1.083,1.3l-0.002,16.357H18.5
	L50.445,11.235z M16.232,64.306v-9.038h50.809v9.038H16.232z"/>
</svg>
